# xmcd
#
# Track frame offsets:
#	150
#	17123
#	34575
#	49928
#	66835
#	82735
#	102248
#	121345
#	141565
#	156740
#
# Disc length: 2345 seconds
#
# Revision: 0
# Processed by: cddbd v1.4PL0 Copyright (c) Steve Scherf et al.
# Submitted via: dBpowerAMP V4.0
#
DISCID=8809270a
DTITLE=TOFU - Album 2
DYEAR=2003
DGENRE=pop
TTITLE0=aku padamu
TTITLE1=cinta abadi
TTITLE2=yo ayo
TTITLE3=bunga mimpiku
TTITLE4=bosan
TTITLE5=jangan pernah
TTITLE6=selalu terbayang
TTITLE7=selamanya
TTITLE8=biarkan kusendiri
TTITLE9=lagu terakhir
EXTD=
EXTT0=
EXTT1=
EXTT2=
EXTT3=
EXTT4=
EXTT5=
EXTT6=
EXTT7=
EXTT8=
EXTT9=
PLAYORDER=
